
<svg xmlns="http://www.w3.org/2000/svg" width="500" height="500" viewBox="0 0 500 500" version="1.1"><path d="M 219.607 194.546 C 189.983 197.773, 168.131 204.303, 140.833 218.085 C 130.560 223.271, 129.898 223.320, 122.433 219.429 C 116.837 216.512, 114.846 216, 109.105 216 C 101.124 216, 94.740 217.971, 86.396 223.011 C 80.698 226.453, 79.604 226.738, 69.896 227.297 C 52.178 228.318, 39.018 234.077, 27.048 246.048 C 20.155 252.940, 15.469 260.382, 11.719 270.392 C 8.982 277.699, 8.674 279.686, 8.605 290.500 C 8.546 299.563, 8.996 304.091, 10.440 309 C 17.449 332.818, 31.668 348.255, 52.335 354.482 C 57.504 356.039, 58.098 356.483, 57.539 358.370 C 54.099 369.963, 52.691 380.545, 52.599 395.500 C 52.494 412.539, 53.308 417.455, 57.701 426.300 L 60.084 431.100 66.792 424.906 C 90.768 402.765, 136.559 382.497, 180.500 374.577 C 185.450 373.684, 191.975 372.506, 195 371.957 C 215.520 368.237, 257.713 367.028, 283.120 369.431 C 292.679 370.336, 302.750 371.500, 305.500 372.018 C 308.250 372.537, 314.325 373.667, 319 374.529 C 366.085 383.218, 410.973 403.486, 435.602 427.180 L 439.704 431.126 442.222 425.813 C 446.641 416.491, 447.507 411.510, 447.403 396 C 447.310 382.285, 446.647 377.396, 442.303 358.394 C 441.893 356.598, 442.607 356.033, 447.161 354.548 C 464.808 348.797, 476.124 338.974, 483.972 322.595 C 489.436 311.190, 491.422 302.531, 491.334 290.500 C 491.214 274.006, 485.694 260.091, 474.542 248.170 C 461.921 234.677, 447.916 228.152, 429.632 227.245 C 419.436 226.739, 418.462 226.503, 413.896 223.430 C 400.442 214.376, 383.925 213.408, 374.146 221.100 C 371.198 223.419, 369.038 222.973, 359 217.976 C 330.927 204.002, 309.532 197.716, 279.143 194.513 C 262.158 192.723, 236.212 192.737, 219.607 194.546 M 63 241.504 C 54.470 243.403, 49.626 245.533, 43.319 250.160 C 33.488 257.372, 28.578 263.969, 24.329 275.676 C 19.730 288.345, 21.715 306.860, 28.884 318.159 C 39.128 334.304, 54.572 343, 73 343 C 91.425 343, 106.878 334.300, 117.110 318.165 C 126.768 302.937, 126.320 279.777, 116.071 264.428 C 111.039 256.891, 110.434 256.204, 105 251.845 C 93.249 242.421, 76.932 238.404, 63 241.504 M 417 241.510 C 405.926 243.965, 396.864 248.852, 390.187 255.969 C 370.657 276.786, 370.396 306.192, 389.558 326.889 C 399.500 337.628, 411.970 342.987, 427 342.982 C 440.032 342.977, 451.143 338.842, 460.782 330.409 C 478.046 315.307, 483.041 288.682, 472.441 268.252 C 462.192 248.498, 438.036 236.846, 417 241.510 M 65.440 262.452 C 62.444 267.024, 60.854 274.464, 60.301 286.500 C 59.665 300.344, 61.019 311.034, 64.273 317.841 C 69.598 328.981, 75.385 321.762, 78.032 300.679 C 79.334 290.309, 78.336 277.758, 75.448 268.162 C 73.067 260.249, 68.566 257.681, 65.440 262.452 M 425.275 262.250 C 421.855 265.961, 419.918 273.661, 419.297 286.020 C 418.390 304.064, 421.208 318.608, 426.456 322.964 C 427.820 324.095, 428.422 323.952, 430.497 322.003 C 433.716 318.979, 435.730 312.546, 436.986 301.274 C 438.767 285.291, 435.015 263.684, 429.992 260.996 C 427.547 259.687, 427.666 259.656, 425.275 262.250 M 220.467 313.998 C 215.521 316.446, 213 320.483, 213 325.954 C 213 331.315, 215.108 335.286, 219.344 337.903 C 225.807 341.898, 235.145 339.488, 238.524 332.953 C 240.970 328.223, 240.434 321.670, 237.297 317.941 C 234.568 314.698, 229.564 311.999, 226.282 312.001 C 225.302 312.001, 222.685 312.900, 220.467 313.998 M 267.207 313.958 C 257.094 318.628, 256.988 333.322, 267.029 338.515 C 275.845 343.074, 286.983 336.370, 286.990 326.500 C 286.997 316.039, 276.757 309.548, 267.207 313.958 M 235 384.585 C 210.633 386.653, 204.295 387.314, 196.500 388.597 C 148.167 396.550, 108.654 414.107, 84.641 438.299 C 76.596 446.404, 76.445 445.980, 89.320 451.408 C 113.124 461.443, 146.029 470.451, 177 475.412 C 202.215 479.451, 216.119 480.401, 250 480.401 C 288.679 480.401, 307.532 478.722, 340.500 472.342 C 365.552 467.494, 402.407 455.884, 418.296 447.835 L 422.093 445.912 417.953 441.206 C 401.665 422.688, 371.630 405.955, 336.846 396.019 C 320.699 391.407, 301.752 387.868, 283.660 386.085 C 271.660 384.903, 242.022 383.989, 235 384.585" stroke="none" fill="#3cac04" fill-rule="evenodd"/><path d="M 241.962 21.250 C 236.361 24.075, 232.415 31.067, 233.415 36.396 C 234.325 41.247, 237.967 46.225, 242.087 48.248 L 245.647 49.996 243.898 56.748 C 232.887 99.262, 220.284 123.676, 206.341 129.502 C 195.594 133.992, 184.054 126.884, 171.545 108.068 C 166.634 100.680, 159.534 86.966, 156.066 78.169 L 153.971 72.852 155.985 70.291 C 158.684 66.861, 158.683 60.138, 155.984 56.707 C 147.500 45.921, 130.731 57.272, 137.706 69.080 C 139.443 72.020, 144.395 75, 147.543 75 C 149.135 75, 149.227 75.967, 148.614 86.250 C 145.973 130.566, 131.693 145.618, 105.140 132.072 C 89.264 123.972, 49 84.241, 49 76.675 C 49 70.903, 44.407 66, 39 66 C 36.066 66, 31.258 68.650, 30.030 70.945 C 29.463 72.003, 29 74.719, 29 76.980 C 29 81.798, 32.188 85.688, 36.911 86.632 C 39.398 87.130, 42.817 91.253, 58.248 112.362 C 68.354 126.188, 81.995 144.844, 88.561 153.820 C 112.304 186.276, 119.095 195.616, 123.743 202.210 C 129.357 210.174, 128.183 210.188, 145.500 201.953 C 161.803 194.200, 163.325 193.559, 172.500 190.579 C 184.407 186.712, 199.141 183.265, 212.031 181.331 C 228.435 178.870, 270.834 178.847, 287.579 181.289 C 311.273 184.745, 331.382 190.967, 354.500 201.994 C 361.100 205.142, 367.460 208.020, 368.634 208.390 C 370.932 209.113, 373.376 205.920, 427.483 131.500 C 460.797 85.678, 459.479 87.354, 462.716 86.707 C 464.300 86.390, 466.812 84.915, 468.298 83.429 C 474.316 77.411, 469.475 66, 460.903 66 C 455.506 66, 449.166 72.705, 450.336 77.176 C 450.964 79.578, 440.687 92.076, 425.694 107.142 C 405.953 126.979, 389.671 137, 377.181 137 C 362.238 137, 353.103 119.557, 351.388 87.750 C 350.756 76.016, 350.840 75, 352.449 75 C 356.042 75, 360.867 71.801, 362.516 68.326 C 364.705 63.712, 363.814 59.154, 360.009 55.508 C 357.631 53.230, 356.133 52.667, 352.457 52.667 C 348.662 52.667, 347.337 53.201, 344.769 55.769 C 340.769 59.769, 340.365 66.631, 343.907 70.401 L 346.148 72.786 343.898 78.143 C 340.322 86.660, 331.189 103.830, 326.719 110.438 C 318.475 122.627, 307.447 131.030, 299.761 130.978 C 290.417 130.915, 280.964 121.777, 272.616 104.735 C 266.356 91.957, 261.980 79.426, 255.543 55.846 C 253.646 48.894, 253.645 49, 255.596 49 C 258.281 49, 263.149 44.888, 264.613 41.383 C 266.522 36.815, 266.350 31.137, 264.176 26.984 C 262.003 22.834, 255.196 19, 250 19 C 248.033 19, 244.416 20.012, 241.962 21.250" stroke="none" fill="#fccc04" fill-rule="evenodd"/></svg>